<svg width="30" height="26" viewBox="0 0 30 26" fill="inherit" xmlns="http://www.w3.org/2000/svg">
    <path
        d="M2.34375 0.8125C1.56445 0.8125 0.9375 1.43945 0.9375 2.21875V5.03125C0.9375 5.81055 1.56445 6.4375 2.34375 6.4375H5.15625C5.93555 6.4375 6.5625 5.81055 6.5625 5.03125V2.21875C6.5625 1.43945 5.93555 0.8125 5.15625 0.8125H2.34375ZM11.25 1.75C10.2129 1.75 9.375 2.58789 9.375 3.625C9.375 4.66211 10.2129 5.5 11.25 5.5H28.125C29.1621 5.5 30 4.66211 30 3.625C30 2.58789 29.1621 1.75 28.125 1.75H11.25ZM11.25 11.125C10.2129 11.125 9.375 11.9629 9.375 13C9.375 14.0371 10.2129 14.875 11.25 14.875H28.125C29.1621 14.875 30 14.0371 30 13C30 11.9629 29.1621 11.125 28.125 11.125H11.25ZM11.25 20.5C10.2129 20.5 9.375 21.3379 9.375 22.375C9.375 23.4121 10.2129 24.25 11.25 24.25H28.125C29.1621 24.25 30 23.4121 30 22.375C30 21.3379 29.1621 20.5 28.125 20.5H11.25ZM0.9375 11.5938V14.4062C0.9375 15.1855 1.56445 15.8125 2.34375 15.8125H5.15625C5.93555 15.8125 6.5625 15.1855 6.5625 14.4062V11.5938C6.5625 10.8145 5.93555 10.1875 5.15625 10.1875H2.34375C1.56445 10.1875 0.9375 10.8145 0.9375 11.5938ZM2.34375 19.5625C1.56445 19.5625 0.9375 20.1895 0.9375 20.9688V23.7812C0.9375 24.5605 1.56445 25.1875 2.34375 25.1875H5.15625C5.93555 25.1875 6.5625 24.5605 6.5625 23.7812V20.9688C6.5625 20.1895 5.93555 19.5625 5.15625 19.5625H2.34375Z" />
</svg>